<?xml version="1.0" encoding="iso-8859-1"?>
<!-- Generator: Adobe Illustrator 16.0.0, SVG Export Plug-In . SVG Version: 6.00 Build 0)  -->
<!DOCTYPE svg PUBLIC "-//W3C//DTD SVG 1.1//EN" "http://www.w3.org/Graphics/SVG/1.1/DTD/svg11.dtd">
<svg version="1.1" id="Capa_1" xmlns="http://www.w3.org/2000/svg" xmlns:xlink="http://www.w3.org/1999/xlink" x="0px" y="0px"
	 width="612px" height="612px" viewBox="0 0 612 612" style="enable-background:new 0 0 612 612;" xml:space="preserve">
<g>
	<g id="compose">
		<g>
			<path d="M190.657,421.936l144.106-72.885c15.281-1.225,30.256-7.401,41.941-19.087l133.971-133.971l-94.669-94.669
				L282.036,235.295c-11.724,11.724-17.901,26.756-19.105,42.075L190.657,421.936z M583.791,122.878
				c26.144-26.144,26.144-68.524,0-94.668c-26.145-26.144-68.525-26.144-94.669,0l-19.029,19.029l94.669,94.668L583.791,122.878z
				 M573.75,306c-21.133,0-38.25,17.117-38.25,38.25V535.5h-459v-459h153c21.133,0,38.25-17.117,38.25-38.25S250.633,0,229.5,0
				H38.25C17.117,0,0,17.117,0,38.25v535.5C0,594.883,17.117,612,38.25,612h535.5c21.133,0,38.25-17.117,38.25-38.25v-229.5
				C612,323.117,594.883,306,573.75,306z"/>
		</g>
	</g>
</g>
<g>
</g>
<g>
</g>
<g>
</g>
<g>
</g>
<g>
</g>
<g>
</g>
<g>
</g>
<g>
</g>
<g>
</g>
<g>
</g>
<g>
</g>
<g>
</g>
<g>
</g>
<g>
</g>
<g>
</g>
</svg>
